# xmcd CD database file
#
# Track frame offsets:
#	150
#	15816
#	34313
#	49180
#	63509
#	80053
#	93085
#	107115
#	120547
#	137924
#	153401
#	166707
#
# Disc length: 2483 seconds
#
# Revision: 1
# Processed by: cddbd v1.4PL0 Copyright (c) Steve Scherf et al.
# Submitted via: NeoAudio 9.9.9
#
DISCID=9109b10c
DTITLE=Javier Solis - Exitos Con Trios
DYEAR=1900
DGENRE=Latin
TTITLE0=Sombras
TTITLE1=Cuando Vuelvo A Tu Lado
TTITLE2=Payaso
TTITLE3=Solamente Una Vez
TTITLE4=En Mi Viejo San Juan
TTITLE5=Tres Palabras
TTITLE6=La Mentira ( Se Te Olvida )
TTITLE7=Obsesion
TTITLE8=Si Dios Me Quita La Vida
TTITLE9=Me Recordaras
TTITLE10=Sigamos Pecando
TTITLE11=Besame Mucho
EXTD=
EXTT0=
EXTT1=
EXTT2=
EXTT3=
EXTT4=
EXTT5=
EXTT6=
EXTT7=
EXTT8=
EXTT9=
EXTT10=
EXTT11=
PLAYORDER=
